<svg width="329" height="140" viewBox="0 0 329 140" fill="none" xmlns="http://www.w3.org/2000/svg">
<path fill-rule="evenodd" clip-rule="evenodd" d="M94 131.014V7.98554C98.2962 7.73633 101.736 4.29625 101.986 0H319C324.523 0 329 4.47715 329 10V130C329 135.523 324.523 140 319 140H101.986C101.995 139.835 102 139.668 102 139.5C102 134.973 98.4617 131.273 94 131.014Z" fill="#FFD2D2"/>
<path fill-rule="evenodd" clip-rule="evenodd" d="M93.5 8C93.6678 8 93.8346 7.99513 94 7.98554V131.014C93.8346 131.005 93.6678 131 93.5 131C88.8056 131 85 134.806 85 139.5C85 139.668 85.0049 139.835 85.0145 140H10C4.47715 140 0 135.523 0 130V10C0 4.47716 4.47715 0 10 0H85.0145C85.2733 4.46169 88.9734 8 93.5 8Z" fill="#E38B8B"/>
</svg>
